<svg xmlns="http://www.w3.org/2000/svg" width="200" zoomAndPan="magnify"
     viewBox="0 0 150 48" height="64" preserveAspectRatio="xMidYMid meet" version="1.0">
  <defs>
    <g/>
    <clipPath id="59f141a5d3">
      <path d="M 1.53125 11 L 41.9375 11 L 41.9375 47 L 1.53125 47 Z M 1.53125 11 " clip-rule="nonzero"/>
    </clipPath>
    <clipPath id="329e689059">
      <path d="M 1.53125 11 L 22 11 L 22 47 L 1.53125 47 Z M 1.53125 11 " clip-rule="nonzero"/>
    </clipPath>
    <clipPath id="62de5258d9">
      <path d="M 21 11 L 41.9375 11 L 41.9375 47 L 21 47 Z M 21 11 " clip-rule="nonzero"/>
    </clipPath>
    <clipPath id="63fe0efd1a">
      <path d="M 1.53125 0 L 41.9375 0 L 41.9375 24 L 1.53125 24 Z M 1.53125 0 " clip-rule="nonzero"/>
    </clipPath>
    <clipPath id="28a533c985">
      <path d="M 1.53125 11 L 41.9375 11 L 41.9375 25 L 1.53125 25 Z M 1.53125 11 " clip-rule="nonzero"/>
    </clipPath>
  </defs>
  <g clip-path="url(#59f141a5d3)">
    <path fill="#42e8e0"
          d="M 21.734375 23.503906 L 1.53125 11.886719 L 1.53125 35.132812 L 21.734375 46.765625 L 41.9375 35.132812 L 41.9375 11.886719 Z M 21.734375 23.503906 "
          fill-opacity="1" fill-rule="nonzero"/>
  </g>
  <g clip-path="url(#329e689059)">
    <path fill="#63c5e3"
          d="M 21.734375 46.765625 L 1.53125 35.132812 L 1.53125 11.886719 L 21.734375 23.503906 Z M 21.734375 46.765625 "
          fill-opacity="1" fill-rule="nonzero"/>
  </g>
  <g clip-path="url(#62de5258d9)">
    <path fill="#4d92cf"
          d="M 41.9375 35.132812 L 21.734375 46.765625 L 21.734375 23.503906 L 41.9375 11.886719 Z M 41.9375 35.132812 "
          fill-opacity="1" fill-rule="nonzero"/>
  </g>
  <g clip-path="url(#63fe0efd1a)">
    <path fill="#63c5e3"
          d="M 21.734375 23.503906 L 1.53125 11.886719 L 21.734375 0.253906 L 41.9375 11.886719 Z M 21.734375 23.503906 "
          fill-opacity="1" fill-rule="nonzero"/>
  </g>
  <g clip-path="url(#28a533c985)">
    <path fill="#0f498f"
          d="M 21.734375 23.503906 L 1.53125 11.886719 L 1.53125 12.890625 L 21.734375 24.519531 L 41.9375 12.890625 L 41.9375 11.886719 Z M 21.734375 23.503906 "
          fill-opacity="1" fill-rule="nonzero"/>
  </g>
  <g fill="#4d92cf" fill-opacity="1">
    <g transform="translate(51.34628, 32.117279)">
      <g>
        <path
          d="M 0.859375 -7.203125 C 0.859375 -8.648438 1.144531 -9.929688 1.71875 -11.046875 C 2.289062 -12.171875 3.078125 -13.035156 4.078125 -13.640625 C 5.078125 -14.242188 6.191406 -14.546875 7.421875 -14.546875 C 8.347656 -14.546875 9.234375 -14.34375 10.078125 -13.9375 C 10.921875 -13.53125 11.59375 -12.992188 12.09375 -12.328125 L 12.09375 -19.125 L 15.765625 -19.125 L 15.765625 0 L 12.09375 0 L 12.09375 -2.125 C 11.644531 -1.414062 11.015625 -0.84375 10.203125 -0.40625 C 9.398438 0.0195312 8.460938 0.234375 7.390625 0.234375 C 6.179688 0.234375 5.078125 -0.0703125 4.078125 -0.6875 C 3.078125 -1.3125 2.289062 -2.1875 1.71875 -3.3125 C 1.144531 -4.445312 0.859375 -5.742188 0.859375 -7.203125 Z M 12.125 -7.15625 C 12.125 -8.039062 11.953125 -8.796875 11.609375 -9.421875 C 11.265625 -10.046875 10.796875 -10.523438 10.203125 -10.859375 C 9.617188 -11.203125 8.992188 -11.375 8.328125 -11.375 C 7.648438 -11.375 7.023438 -11.207031 6.453125 -10.875 C 5.890625 -10.550781 5.429688 -10.070312 5.078125 -9.4375 C 4.722656 -8.8125 4.546875 -8.066406 4.546875 -7.203125 C 4.546875 -6.347656 4.722656 -5.597656 5.078125 -4.953125 C 5.429688 -4.304688 5.894531 -3.8125 6.46875 -3.46875 C 7.050781 -3.125 7.671875 -2.953125 8.328125 -2.953125 C 8.992188 -2.953125 9.617188 -3.117188 10.203125 -3.453125 C 10.796875 -3.785156 11.265625 -4.265625 11.609375 -4.890625 C 11.953125 -5.523438 12.125 -6.28125 12.125 -7.15625 Z M 12.125 -7.15625 "/>
      </g>
    </g>
  </g>
  <g fill="#4d92cf" fill-opacity="1">
    <g transform="translate(68.858397, 32.117279)">
      <g>
        <path
          d="M 3.625 -16.015625 C 2.976562 -16.015625 2.441406 -16.21875 2.015625 -16.625 C 1.597656 -17.03125 1.390625 -17.535156 1.390625 -18.140625 C 1.390625 -18.742188 1.597656 -19.25 2.015625 -19.65625 C 2.441406 -20.0625 2.976562 -20.265625 3.625 -20.265625 C 4.257812 -20.265625 4.785156 -20.0625 5.203125 -19.65625 C 5.628906 -19.25 5.84375 -18.742188 5.84375 -18.140625 C 5.84375 -17.535156 5.628906 -17.03125 5.203125 -16.625 C 4.785156 -16.21875 4.257812 -16.015625 3.625 -16.015625 Z M 5.40625 -14.3125 L 5.40625 0 L 1.78125 0 L 1.78125 -14.3125 Z M 5.40625 -14.3125 "/>
      </g>
    </g>
  </g>
  <g fill="#4d92cf" fill-opacity="1">
    <g transform="translate(76.038882, 32.117279)">
      <g>
        <path
          d="M 7.265625 0.234375 C 6.085938 0.234375 5.035156 0.0234375 4.109375 -0.390625 C 3.179688 -0.816406 2.441406 -1.390625 1.890625 -2.109375 C 1.347656 -2.835938 1.054688 -3.640625 1.015625 -4.515625 L 4.65625 -4.515625 C 4.71875 -3.972656 4.984375 -3.519531 5.453125 -3.15625 C 5.929688 -2.789062 6.523438 -2.609375 7.234375 -2.609375 C 7.921875 -2.609375 8.457031 -2.742188 8.84375 -3.015625 C 9.238281 -3.296875 9.4375 -3.648438 9.4375 -4.078125 C 9.4375 -4.546875 9.195312 -4.894531 8.71875 -5.125 C 8.25 -5.363281 7.5 -5.617188 6.46875 -5.890625 C 5.394531 -6.148438 4.515625 -6.414062 3.828125 -6.6875 C 3.148438 -6.96875 2.566406 -7.390625 2.078125 -7.953125 C 1.585938 -8.523438 1.34375 -9.296875 1.34375 -10.265625 C 1.34375 -11.054688 1.570312 -11.773438 2.03125 -12.421875 C 2.488281 -13.078125 3.140625 -13.59375 3.984375 -13.96875 C 4.835938 -14.351562 5.84375 -14.546875 7 -14.546875 C 8.707031 -14.546875 10.066406 -14.117188 11.078125 -13.265625 C 12.097656 -12.410156 12.660156 -11.265625 12.765625 -9.828125 L 9.296875 -9.828125 C 9.242188 -10.390625 9.003906 -10.835938 8.578125 -11.171875 C 8.160156 -11.515625 7.601562 -11.6875 6.90625 -11.6875 C 6.25 -11.6875 5.742188 -11.5625 5.390625 -11.3125 C 5.035156 -11.070312 4.859375 -10.738281 4.859375 -10.3125 C 4.859375 -9.832031 5.097656 -9.46875 5.578125 -9.21875 C 6.066406 -8.96875 6.816406 -8.710938 7.828125 -8.453125 C 8.859375 -8.191406 9.707031 -7.921875 10.375 -7.640625 C 11.050781 -7.367188 11.632812 -6.941406 12.125 -6.359375 C 12.625 -5.785156 12.878906 -5.023438 12.890625 -4.078125 C 12.890625 -3.253906 12.660156 -2.515625 12.203125 -1.859375 C 11.753906 -1.203125 11.101562 -0.6875 10.25 -0.3125 C 9.394531 0.0507812 8.398438 0.234375 7.265625 0.234375 Z M 7.265625 0.234375 "/>
      </g>
    </g>
  </g>
  <g fill="#4d92cf" fill-opacity="1">
    <g transform="translate(90.115731, 32.117279)">
      <g>
        <path
          d="M 6 -11.34375 L 6 -4.421875 C 6 -3.941406 6.113281 -3.59375 6.34375 -3.375 C 6.570312 -3.15625 6.960938 -3.046875 7.515625 -3.046875 L 9.203125 -3.046875 L 9.203125 0 L 6.921875 0 C 3.878906 0 2.359375 -1.476562 2.359375 -4.4375 L 2.359375 -11.34375 L 0.640625 -11.34375 L 0.640625 -14.3125 L 2.359375 -14.3125 L 2.359375 -17.859375 L 6 -17.859375 L 6 -14.3125 L 9.203125 -14.3125 L 9.203125 -11.34375 Z M 6 -11.34375 "/>
      </g>
    </g>
  </g>
  <g fill="#4d92cf" fill-opacity="1">
    <g transform="translate(100.137414, 32.117279)">
      <g>
        <path
          d="M 5.40625 -12.09375 C 5.863281 -12.851562 6.46875 -13.445312 7.21875 -13.875 C 7.96875 -14.3125 8.828125 -14.53125 9.796875 -14.53125 L 9.796875 -10.71875 L 8.84375 -10.71875 C 7.707031 -10.71875 6.847656 -10.453125 6.265625 -9.921875 C 5.691406 -9.390625 5.40625 -8.460938 5.40625 -7.140625 L 5.40625 0 L 1.78125 0 L 1.78125 -14.3125 L 5.40625 -14.3125 Z M 5.40625 -12.09375 "/>
      </g>
    </g>
  </g>
  <g fill="#0f498f" fill-opacity="1">
    <g transform="translate(110.580972, 32.117279)">
      <g>
        <path
          d="M 3.390625 0.1875 C 2.734375 0.1875 2.191406 -0.015625 1.765625 -0.421875 C 1.347656 -0.828125 1.140625 -1.332031 1.140625 -1.9375 C 1.140625 -2.539062 1.347656 -3.046875 1.765625 -3.453125 C 2.191406 -3.859375 2.734375 -4.0625 3.390625 -4.0625 C 4.023438 -4.0625 4.546875 -3.859375 4.953125 -3.453125 C 5.367188 -3.046875 5.578125 -2.539062 5.578125 -1.9375 C 5.578125 -1.332031 5.367188 -0.828125 4.953125 -0.421875 C 4.546875 -0.015625 4.023438 0.1875 3.390625 0.1875 Z M 3.390625 0.1875 "/>
      </g>
    </g>
  </g>
  <g fill="#0f498f" fill-opacity="1">
    <g transform="translate(117.296533, 32.117279)">
      <g>
        <path
          d="M 7.265625 0.234375 C 6.085938 0.234375 5.035156 0.0234375 4.109375 -0.390625 C 3.179688 -0.816406 2.441406 -1.390625 1.890625 -2.109375 C 1.347656 -2.835938 1.054688 -3.640625 1.015625 -4.515625 L 4.65625 -4.515625 C 4.71875 -3.972656 4.984375 -3.519531 5.453125 -3.15625 C 5.929688 -2.789062 6.523438 -2.609375 7.234375 -2.609375 C 7.921875 -2.609375 8.457031 -2.742188 8.84375 -3.015625 C 9.238281 -3.296875 9.4375 -3.648438 9.4375 -4.078125 C 9.4375 -4.546875 9.195312 -4.894531 8.71875 -5.125 C 8.25 -5.363281 7.5 -5.617188 6.46875 -5.890625 C 5.394531 -6.148438 4.515625 -6.414062 3.828125 -6.6875 C 3.148438 -6.96875 2.566406 -7.390625 2.078125 -7.953125 C 1.585938 -8.523438 1.34375 -9.296875 1.34375 -10.265625 C 1.34375 -11.054688 1.570312 -11.773438 2.03125 -12.421875 C 2.488281 -13.078125 3.140625 -13.59375 3.984375 -13.96875 C 4.835938 -14.351562 5.84375 -14.546875 7 -14.546875 C 8.707031 -14.546875 10.066406 -14.117188 11.078125 -13.265625 C 12.097656 -12.410156 12.660156 -11.265625 12.765625 -9.828125 L 9.296875 -9.828125 C 9.242188 -10.390625 9.003906 -10.835938 8.578125 -11.171875 C 8.160156 -11.515625 7.601562 -11.6875 6.90625 -11.6875 C 6.25 -11.6875 5.742188 -11.5625 5.390625 -11.3125 C 5.035156 -11.070312 4.859375 -10.738281 4.859375 -10.3125 C 4.859375 -9.832031 5.097656 -9.46875 5.578125 -9.21875 C 6.066406 -8.96875 6.816406 -8.710938 7.828125 -8.453125 C 8.859375 -8.191406 9.707031 -7.921875 10.375 -7.640625 C 11.050781 -7.367188 11.632812 -6.941406 12.125 -6.359375 C 12.625 -5.785156 12.878906 -5.023438 12.890625 -4.078125 C 12.890625 -3.253906 12.660156 -2.515625 12.203125 -1.859375 C 11.753906 -1.203125 11.101562 -0.6875 10.25 -0.3125 C 9.394531 0.0507812 8.398438 0.234375 7.265625 0.234375 Z M 7.265625 0.234375 "/>
      </g>
    </g>
  </g>
  <g fill="#0f498f" fill-opacity="1">
    <g transform="translate(131.373382, 32.117279)">
      <g>
        <path
          d="M 9.84375 -14.53125 C 10.925781 -14.53125 11.890625 -14.289062 12.734375 -13.8125 C 13.578125 -13.34375 14.234375 -12.644531 14.703125 -11.71875 C 15.179688 -10.800781 15.421875 -9.695312 15.421875 -8.40625 L 15.421875 0 L 11.8125 0 L 11.8125 -7.90625 C 11.8125 -9.039062 11.523438 -9.914062 10.953125 -10.53125 C 10.390625 -11.144531 9.613281 -11.453125 8.625 -11.453125 C 7.632812 -11.453125 6.847656 -11.144531 6.265625 -10.53125 C 5.691406 -9.914062 5.40625 -9.039062 5.40625 -7.90625 L 5.40625 0 L 1.78125 0 L 1.78125 -19.125 L 5.40625 -19.125 L 5.40625 -12.53125 C 5.863281 -13.15625 6.476562 -13.644531 7.25 -14 C 8.03125 -14.351562 8.894531 -14.53125 9.84375 -14.53125 Z M 9.84375 -14.53125 "/>
      </g>
    </g>
  </g>
</svg>
