<svg width="512" height="512" viewBox="0 0 512 512" fill="none" xmlns="http://www.w3.org/2000/svg">
<rect width="512" height="512" fill="white"/>
<path fill-rule="evenodd" clip-rule="evenodd" d="M142 116C142 110.477 146.478 106 152 106H192C197.522 106 202 110.477 202 116V156C202 161.523 206.478 166 212 166H252C257.522 166 262 161.523 262 156V116C262 110.477 266.478 106 272 106H312C317.522 106 322 110.477 322 116V156C322 161.523 326.478 166 332 166H372C377.522 166 382 170.477 382 176V216C382 221.523 377.522 226 372 226H332C326.478 226 322 230.477 322 236V276C322 281.523 326.478 286 332 286H372C377.522 286 382 290.477 382 296V336C382 341.523 377.522 346 372 346H332C326.478 346 322 350.477 322 356V396C322 401.523 317.522 406 312 406H272C266.478 406 262 401.523 262 396V356C262 350.477 257.522 346 252 346H212C206.478 346 202 350.477 202 356V396C202 401.523 197.522 406 192 406H152C146.478 406 142 401.523 142 396V356C142 350.477 146.478 346 152 346H192C197.522 346 202 341.523 202 336V296C202 290.477 197.522 286 192 286H152C146.478 286 142 281.523 142 276V236C142 230.477 146.478 226 152 226H192C197.522 226 202 221.523 202 216V176C202 170.477 197.522 166 192 166H152C146.478 166 142 161.523 142 156V116ZM322 336V296C322 290.477 317.522 286 312 286H272C266.478 286 262 290.477 262 296V336C262 341.523 266.478 346 272 346H312C317.522 346 322 341.523 322 336ZM262 236V276C262 281.523 257.522 286 252 286H212C206.478 286 202 281.523 202 276V236C202 230.477 206.478 226 212 226H252C257.522 226 262 230.477 262 236ZM272 166H312C317.522 166 322 170.477 322 176V216C322 221.523 317.522 226 312 226H272C266.478 226 262 221.523 262 216V176C262 170.477 266.478 166 272 166Z" fill="#151515"/>
</svg>
